<svg width="124" height="124" viewBox="0 0 124 124" fill="none" xmlns="http://www.w3.org/2000/svg">
<g id="Group 22">
<g id="Rectangle 17" filter="url(#filter0_b_0_188)">
<rect width="124" height="124" rx="16" fill="#181818" fill-opacity="0.5"/>
</g>
<g id="Group 24">
<path id="Vector" d="M77.9375 32H46.0625C38.296 32 32 38.296 32 46.0625V77.9375C32 85.704 38.296 92 46.0625 92H77.9375C85.704 92 92 85.704 92 77.9375V46.0625C92 38.296 85.704 32 77.9375 32Z" fill="white"/>
<path id="Vector_2" d="M77.9375 32H46.0625C38.296 32 32 38.296 32 46.0625V77.9375C32 85.704 38.296 92 46.0625 92H77.9375C85.704 92 92 85.704 92 77.9375V46.0625C92 38.296 85.704 32 77.9375 32Z" fill="#1D9BF0"/>
<path id="Vector_3" d="M78.7747 53.4244C78.8005 53.7964 78.8005 54.1683 78.8005 54.5438C78.8005 65.9806 70.0939 79.1708 54.1735 79.1708V79.1637C49.4704 79.1705 44.8646 77.8236 40.9062 75.2837C41.5902 75.3659 42.2773 75.4069 42.9664 75.4086C46.8644 75.4116 50.6503 74.1042 53.7158 71.6963C51.9097 71.6622 50.1594 71.0645 48.7096 69.9868C47.2599 68.9092 46.1831 67.4054 45.6298 65.6858C46.9266 65.9358 48.2634 65.8848 49.5373 65.5367C45.4995 64.7208 42.5945 61.1731 42.5945 57.0528V56.9431C43.7982 57.6136 45.1453 57.9851 46.5226 58.0264C42.7196 55.4846 41.5473 50.4251 43.8437 46.4694C46.0166 49.1433 48.7278 51.3303 51.8011 52.8882C54.8743 54.4461 58.2409 55.34 61.6822 55.512C61.3391 54.0351 61.3898 52.4939 61.8292 51.0427C62.2685 49.5915 63.0813 48.2811 64.186 47.2426C67.6721 43.9655 73.1548 44.1336 76.4319 47.6178C78.3702 47.2351 80.2289 46.5245 81.9282 45.5166C81.282 47.5207 79.9299 49.2218 78.1234 50.3035C79.8391 50.1014 81.5147 49.6421 83.0938 48.9411C81.9322 50.6806 80.4696 52.1987 78.7747 53.4244Z" fill="white"/>
</g>
</g>
<defs>
<filter id="filter0_b_0_188" x="-10" y="-10" width="144" height="144" filterUnits="userSpaceOnUse" color-interpolation-filters="sRGB">
<feFlood flood-opacity="0" result="BackgroundImageFix"/>
<feGaussianBlur in="BackgroundImageFix" stdDeviation="5"/>
<feComposite in2="SourceAlpha" operator="in" result="effect1_backgroundBlur_0_188"/>
<feBlend mode="normal" in="SourceGraphic" in2="effect1_backgroundBlur_0_188" result="shape"/>
</filter>
</defs>
</svg>
