<svg width="124" height="124" viewBox="0 0 124 124" fill="none" xmlns="http://www.w3.org/2000/svg">
<g id="Group 21">
<g id="Rectangle 17" filter="url(#filter0_b_0_182)">
<rect width="124" height="124" rx="16" fill="#181818" fill-opacity="0.5"/>
</g>
<g id="Group" filter="url(#filter1_d_0_182)">
<path id="Vector" d="M77.9375 32H46.0625C38.296 32 32 38.296 32 46.0625V77.9375C32 85.704 38.296 92 46.0625 92H77.9375C85.704 92 92 85.704 92 77.9375V46.0625C92 38.296 85.704 32 77.9375 32Z" fill="white"/>
<path id="Vector_2" d="M77.9375 32H46.0625C38.296 32 32 38.296 32 46.0625V77.9375C32 85.704 38.296 92 46.0625 92H77.9375C85.704 92 92 85.704 92 77.9375V46.0625C92 38.296 85.704 32 77.9375 32Z" fill="#0A66C2"/>
<path id="Vector_3" d="M75.2926 83.0199H82.1527C82.4013 83.0199 82.6398 82.9212 82.8156 82.7454C82.9914 82.5697 83.0902 82.3313 83.0902 82.0827L83.0938 67.5884C83.0938 60.0127 81.4613 54.1897 72.6083 54.1897C69.2429 54.0645 66.0692 55.7994 64.3566 58.6962C64.3483 58.7103 64.3355 58.7213 64.3203 58.7274C64.3052 58.7336 64.2884 58.7346 64.2726 58.7303C64.2568 58.726 64.2428 58.7167 64.2328 58.7037C64.2228 58.6908 64.2173 58.6749 64.2172 58.6585V55.8266C64.2172 55.5779 64.1184 55.3395 63.9426 55.1637C63.7668 54.9878 63.5283 54.8891 63.2797 54.8891H56.7695C56.5208 54.8891 56.2824 54.9878 56.1065 55.1637C55.9307 55.3395 55.832 55.5779 55.832 55.8266V82.0812C55.832 82.3299 55.9307 82.5683 56.1065 82.7442C56.2824 82.92 56.5208 83.0187 56.7695 83.0187H63.6291C63.8778 83.0187 64.1162 82.92 64.2921 82.7442C64.4679 82.5683 64.5666 82.3299 64.5666 82.0812V69.1032C64.5666 65.4336 65.2627 61.8798 69.8122 61.8798C74.297 61.8798 74.3551 66.0788 74.3551 69.3409V82.0824C74.3551 82.3311 74.4538 82.5695 74.6297 82.7453C74.8055 82.9212 75.0439 83.0199 75.2926 83.0199ZM40.9062 45.9751C40.9062 48.7559 43.1954 51.0439 45.9763 51.0439C48.7564 51.0437 51.0441 48.7543 51.0441 45.9741C51.0437 43.194 48.7557 40.9062 45.9753 40.9062C43.1942 40.9062 40.9062 43.1945 40.9062 45.9751ZM42.5373 83.0199H49.4061C49.6547 83.0199 49.8932 82.9212 50.069 82.7453C50.2448 82.5695 50.3436 82.3311 50.3436 82.0824V55.8266C50.3436 55.5779 50.2448 55.3395 50.069 55.1637C49.8932 54.9878 49.6547 54.8891 49.4061 54.8891H42.5373C42.2886 54.8891 42.0502 54.9878 41.8744 55.1637C41.6985 55.3395 41.5998 55.5779 41.5998 55.8266V82.0824C41.5998 82.3311 41.6985 82.5695 41.8744 82.7453C42.0502 82.9212 42.2886 83.0199 42.5373 83.0199Z" fill="white"/>
</g>
</g>
<defs>
<filter id="filter0_b_0_182" x="-10" y="-10" width="144" height="144" filterUnits="userSpaceOnUse" color-interpolation-filters="sRGB">
<feFlood flood-opacity="0" result="BackgroundImageFix"/>
<feGaussianBlur in="BackgroundImageFix" stdDeviation="5"/>
<feComposite in2="SourceAlpha" operator="in" result="effect1_backgroundBlur_0_182"/>
<feBlend mode="normal" in="SourceGraphic" in2="effect1_backgroundBlur_0_182" result="shape"/>
</filter>
<filter id="filter1_d_0_182" x="17" y="17" width="90" height="90" filterUnits="userSpaceOnUse" color-interpolation-filters="sRGB">
<feFlood flood-opacity="0" result="BackgroundImageFix"/>
<feColorMatrix in="SourceAlpha" type="matrix" values="0 0 0 0 0 0 0 0 0 0 0 0 0 0 0 0 0 0 127 0" result="hardAlpha"/>
<feOffset/>
<feGaussianBlur stdDeviation="7.5"/>
<feComposite in2="hardAlpha" operator="out"/>
<feColorMatrix type="matrix" values="0 0 0 0 0.0392157 0 0 0 0 0.4 0 0 0 0 0.760784 0 0 0 1 0"/>
<feBlend mode="normal" in2="BackgroundImageFix" result="effect1_dropShadow_0_182"/>
<feBlend mode="normal" in="SourceGraphic" in2="effect1_dropShadow_0_182" result="shape"/>
</filter>
</defs>
</svg>
